# xmcd
#
# Track frame offsets:
#	150
#	16703
#	32178
#	51618
#	72543
#	90881
#	109031
#	126109
#	145257
#	161862
#	180057
#	196518
#	214291
#	229746
#	244971
#
# Disc length: 3548 seconds
#
# Revision: 1
# Processed by: cddbd v1.5.1PL2 Copyright (c) Steve Scherf et al.
# Submitted via: audiograbber 1.83.01
#
DISCID=cb0dda0f
DTITLE=Music Maesrtr - MM6432
DYEAR=1900
DGENRE=Karaoke
TTITLE0=Keith, Toby - Honky Tonk U
TTITLE1=Wilson, Gretchen - Homewrecker
TTITLE2=Big and Rich - Big Time
TTITLE3=McGraw, Tim - Drugs Or Jesus
TTITLE4=Twain, Shania - Don't
TTITLE5=Bentley, Dierks - Lot Of Leavin' Left To Do
TTITLE6=Green, Pat - Baby Doll
TTITLE7=Pinson, Bobby - Don't Ask Me How I Know
TTITLE8=Trick Pony - It's A Heartache
TTITLE9=Hanna and McEuen - Something Like A Broken Heart
TTITLE10=Shedaisy - Don't Worry 'Bout A Thing
TTITLE11=Lines, Aaron - Waitin' On Wonderful
TTITLE12=Diamond Rio - One Believer
TTITLE13=Jewel, Buddy - If She Were Any Other Woman
TTITLE14=Worley, Darryl - If Something Should Happen
EXTD=
EXTT0=
EXTT1=
EXTT2=
EXTT3=
EXTT4=
EXTT5=
EXTT6=
EXTT7=
EXTT8=
EXTT9=
EXTT10=
EXTT11=
EXTT12=
EXTT13=
EXTT14=
PLAYORDER=
